<?xml version="1.0" encoding="UTF-8" standalone="no"?>
<!DOCTYPE svg PUBLIC "-//W3C//DTD SVG 1.0//EN" "http://www.w3.org/TR/2001/PR-SVG-20010719/DTD/svg10.dtd">
<svg width="32cm" height="21cm" viewBox="299 431 634 419" xmlns="http://www.w3.org/2000/svg" xmlns:xlink="http://www.w3.org/1999/xlink">
  <defs/>
  <g id="Fondo">
    <text font-size="12.7998" style="fill: #000000; fill-opacity: 1; stroke: none;text-anchor:start;font-family:sans-serif;font-style:normal;font-weight:normal" x="853" y="535">
      <tspan x="853" y="535"></tspan>
    </text>
    <text font-size="12.7998" style="fill: #000000; fill-opacity: 1; stroke: none;text-anchor:start;font-family:sans-serif;font-style:normal;font-weight:normal" x="824" y="527">
      <tspan x="824" y="527"></tspan>
    </text>
    <text font-size="12.8" style="fill: #000000; fill-opacity: 1; stroke: none;text-anchor:start;font-family:sans-serif;font-style:normal;font-weight:700" x="454" y="443.081">
      <tspan x="454" y="443.081">Relaciones explícitas indeterminadas (1-n y n-n)</tspan>
    </text>
    <rect style="fill: #ffffff; fill-opacity: 1; stroke-opacity: 1; stroke-width: 2; stroke: #000000" x="300" y="712.111" width="631.242" height="132.522" rx="0" ry="0"/>
    <rect style="fill: #ffffff; fill-opacity: 1; stroke-opacity: 1; stroke-width: 2; stroke: #000000" x="300" y="595.513" width="631.242" height="117.454" rx="0" ry="0"/>
    <rect style="fill: #ffffff; fill-opacity: 1; stroke-opacity: 1; stroke-width: 2; stroke: #000000" x="300" y="457.631" width="631.242" height="137.738" rx="0" ry="0"/>
    <g>
      <polygon style="fill: #ffffff; fill-opacity: 1; stroke-opacity: 1; stroke-width: 2; stroke: #000000" fill-rule="evenodd" points="497.202,536.617 467.202,551.617 437.202,536.617 467.202,521.617 "/>
      <polygon style="fill: none; stroke-opacity: 1; stroke-width: 0.2; stroke: #000000" points="497.202,536.617 467.202,551.617 437.202,536.617 467.202,521.617 "/>
      <polygon style="fill: #ffffff; fill-opacity: 1; stroke-opacity: 1; stroke-width: 2; stroke: #000000" fill-rule="evenodd" points="437.202,536.617 467.202,551.617 467.202,561.617 437.202,546.617 "/>
      <polygon style="fill: none; stroke-opacity: 1; stroke-width: 0.2; stroke: #000000" points="437.202,536.617 467.202,551.617 467.202,561.617 437.202,546.617 "/>
      <polygon style="fill: #ffffff; fill-opacity: 1; stroke-opacity: 1; stroke-width: 2; stroke: #000000" fill-rule="evenodd" points="467.202,551.617 497.202,536.617 497.202,546.617 467.202,561.617 "/>
      <polygon style="fill: none; stroke-opacity: 1; stroke-width: 0.2; stroke: #000000" points="467.202,551.617 497.202,536.617 497.202,546.617 467.202,561.617 "/>
    </g>
    <g>
      <ellipse style="fill: #ffffff; fill-opacity: 1; stroke-opacity: 1; stroke-width: 2; stroke: #000000" cx="731.222" cy="609.717" rx="6" ry="6"/>
      <line style="fill: none; stroke-opacity: 1; stroke-width: 2; stroke: #000000" x1="707.222" y1="621.717" x2="755.222" y2="621.717"/>
      <line style="fill: none; stroke-opacity: 1; stroke-width: 2; stroke: #000000" x1="731.222" y1="615.717" x2="731.222" y2="645.717"/>
      <line style="fill: none; stroke-opacity: 1; stroke-width: 2; stroke: #000000" x1="731.222" y1="645.717" x2="707.222" y2="671.717"/>
      <line style="fill: none; stroke-opacity: 1; stroke-width: 2; stroke: #000000" x1="731.222" y1="645.717" x2="755.222" y2="671.717"/>
      <text font-size="12.8" style="fill: #000000; fill-opacity: 1; stroke: none;text-anchor:middle;font-family:sans-serif;font-style:normal;font-weight:normal" x="731.222" y="695.599">
        <tspan x="731.222" y="695.599">Juan</tspan>
      </text>
    </g>
    <g>
      <polygon style="fill: #ffffff; fill-opacity: 1; stroke-opacity: 1; stroke-width: 2; stroke: #000000" fill-rule="evenodd" points="604.608,623.259 574.608,638.259 544.608,623.259 574.608,608.259 "/>
      <polygon style="fill: none; stroke-opacity: 1; stroke-width: 0.2; stroke: #000000" points="604.608,623.259 574.608,638.259 544.608,623.259 574.608,608.259 "/>
      <polygon style="fill: #ffffff; fill-opacity: 1; stroke-opacity: 1; stroke-width: 2; stroke: #000000" fill-rule="evenodd" points="544.608,623.259 574.608,638.259 574.608,648.259 544.608,633.259 "/>
      <polygon style="fill: none; stroke-opacity: 1; stroke-width: 0.2; stroke: #000000" points="544.608,623.259 574.608,638.259 574.608,648.259 544.608,633.259 "/>
      <polygon style="fill: #ffffff; fill-opacity: 1; stroke-opacity: 1; stroke-width: 2; stroke: #000000" fill-rule="evenodd" points="574.608,638.259 604.608,623.259 604.608,633.259 574.608,648.259 "/>
      <polygon style="fill: none; stroke-opacity: 1; stroke-width: 0.2; stroke: #000000" points="574.608,638.259 604.608,623.259 604.608,633.259 574.608,648.259 "/>
    </g>
    <g>
      <ellipse style="fill: #ffffff; fill-opacity: 1; stroke-opacity: 1; stroke-width: 2; stroke: #000000" cx="333.738" cy="611.139" rx="6" ry="6"/>
      <line style="fill: none; stroke-opacity: 1; stroke-width: 2; stroke: #000000" x1="309.738" y1="623.139" x2="357.738" y2="623.139"/>
      <line style="fill: none; stroke-opacity: 1; stroke-width: 2; stroke: #000000" x1="333.738" y1="617.139" x2="333.738" y2="647.139"/>
      <line style="fill: none; stroke-opacity: 1; stroke-width: 2; stroke: #000000" x1="333.738" y1="647.139" x2="309.738" y2="673.139"/>
      <line style="fill: none; stroke-opacity: 1; stroke-width: 2; stroke: #000000" x1="333.738" y1="647.139" x2="357.738" y2="673.139"/>
      <text font-size="12.8" style="fill: #000000; fill-opacity: 1; stroke: none;text-anchor:middle;font-family:sans-serif;font-style:normal;font-weight:normal" x="333.738" y="697.021">
        <tspan x="333.738" y="697.021">Pedro</tspan>
      </text>
    </g>
    <g>
      <polygon style="fill: #ffffff; fill-opacity: 1; stroke-opacity: 1; stroke-width: 2; stroke: #000000" fill-rule="evenodd" points="472.244,746.071 442.244,761.071 412.244,746.071 442.244,731.071 "/>
      <polygon style="fill: none; stroke-opacity: 1; stroke-width: 0.2; stroke: #000000" points="472.244,746.071 442.244,761.071 412.244,746.071 442.244,731.071 "/>
      <polygon style="fill: #ffffff; fill-opacity: 1; stroke-opacity: 1; stroke-width: 2; stroke: #000000" fill-rule="evenodd" points="412.244,746.071 442.244,761.071 442.244,771.071 412.244,756.071 "/>
      <polygon style="fill: none; stroke-opacity: 1; stroke-width: 0.2; stroke: #000000" points="412.244,746.071 442.244,761.071 442.244,771.071 412.244,756.071 "/>
      <polygon style="fill: #ffffff; fill-opacity: 1; stroke-opacity: 1; stroke-width: 2; stroke: #000000" fill-rule="evenodd" points="442.244,761.071 472.244,746.071 472.244,756.071 442.244,771.071 "/>
      <polygon style="fill: none; stroke-opacity: 1; stroke-width: 0.2; stroke: #000000" points="442.244,761.071 472.244,746.071 472.244,756.071 442.244,771.071 "/>
    </g>
    <g>
      <polygon style="fill: #ffffff; fill-opacity: 1; stroke-opacity: 1; stroke-width: 2; stroke: #000000" fill-rule="evenodd" points="619.458,745.661 589.458,760.661 559.458,745.661 589.458,730.661 "/>
      <polygon style="fill: none; stroke-opacity: 1; stroke-width: 0.2; stroke: #000000" points="619.458,745.661 589.458,760.661 559.458,745.661 589.458,730.661 "/>
      <polygon style="fill: #ffffff; fill-opacity: 1; stroke-opacity: 1; stroke-width: 2; stroke: #000000" fill-rule="evenodd" points="559.458,745.661 589.458,760.661 589.458,770.661 559.458,755.661 "/>
      <polygon style="fill: none; stroke-opacity: 1; stroke-width: 0.2; stroke: #000000" points="559.458,745.661 589.458,760.661 589.458,770.661 559.458,755.661 "/>
      <polygon style="fill: #ffffff; fill-opacity: 1; stroke-opacity: 1; stroke-width: 2; stroke: #000000" fill-rule="evenodd" points="589.458,760.661 619.458,745.661 619.458,755.661 589.458,770.661 "/>
      <polygon style="fill: none; stroke-opacity: 1; stroke-width: 0.2; stroke: #000000" points="589.458,760.661 619.458,745.661 619.458,755.661 589.458,770.661 "/>
    </g>
    <g>
      <line style="fill: none; stroke-opacity: 1; stroke-width: 2; stroke: #ffa500" x1="482.975" y1="754.651" x2="548.727" y2="754.467"/>
      <polygon style="fill: #ffa500; fill-opacity: 1; stroke-opacity: 1; stroke-width: 2; stroke: #ffa500" fill-rule="evenodd" points="475.475,754.671 485.461,749.644 482.975,754.651 485.488,759.644 "/>
      <polygon style="fill: #ffa500; fill-opacity: 1; stroke-opacity: 1; stroke-width: 2; stroke: #ffa500" fill-rule="evenodd" points="556.227,754.447 546.241,759.474 548.727,754.467 546.213,749.474 "/>
    </g>
    <text font-size="12.8" style="fill: #000000; fill-opacity: 1; stroke: none;text-anchor:start;font-family:sans-serif;font-style:normal;font-weight:normal" x="781.1" y="499.835">
      <tspan x="781.1" y="499.835">Si Pedro tiene más </tspan>
      <tspan x="781.1" y="515.835">de una parcela A </tspan>
      <tspan x="781.1" y="531.835">que linda con </tspan>
      <tspan x="781.1" y="547.835">alguna parcela </tspan>
      <tspan x="781.1" y="563.835">de Juan</tspan>
    </text>
    <text font-size="12.8" style="fill: #000000; fill-opacity: 1; stroke: none;text-anchor:start;font-family:sans-serif;font-style:normal;font-weight:normal" x="780.49" y="625.827">
      <tspan x="780.49" y="625.827">Y Juan tiene una o </tspan>
      <tspan x="780.49" y="641.827">más parcelas B </tspan>
      <tspan x="780.49" y="657.827">que lindan con </tspan>
      <tspan x="780.49" y="673.827">alguna parcela</tspan>
      <tspan x="780.49" y="689.827">de Pedro.</tspan>
    </text>
    <text font-size="12.8" style="fill: #000000; fill-opacity: 1; stroke: none;text-anchor:start;font-family:sans-serif;font-style:normal;font-weight:normal" x="557.164" y="602.563">
      <tspan x="557.164" y="602.563"></tspan>
    </text>
    <text font-size="12.8" style="fill: #000000; fill-opacity: 1; stroke: none;text-anchor:start;font-family:sans-serif;font-style:normal;font-weight:normal" x="495.164" y="602.563">
      <tspan x="495.164" y="602.563"></tspan>
    </text>
    <text font-size="12.8" style="fill: #000000; fill-opacity: 1; stroke: none;text-anchor:start;font-family:sans-serif;font-style:normal;font-weight:normal" x="779.138" y="748.099">
      <tspan x="779.138" y="748.099">En ese caso, habrá</tspan>
      <tspan x="779.138" y="764.099">que resolver si todas </tspan>
      <tspan x="779.138" y="780.099">las relaciones </tspan>
      <tspan x="779.138" y="796.099">creadas tienen </tspan>
      <tspan x="779.138" y="812.099">sentido.</tspan>
    </text>
    <text font-size="12.8" style="fill: #000000; fill-opacity: 1; stroke: none;text-anchor:start;font-family:sans-serif;font-style:normal;font-weight:normal" x="481.164" y="610.563">
      <tspan x="481.164" y="610.563"></tspan>
    </text>
    <text font-size="12.8" style="fill: #000000; fill-opacity: 1; stroke: none;text-anchor:start;font-family:sans-serif;font-style:normal;font-weight:normal" x="558.164" y="734.563">
      <tspan x="558.164" y="734.563"></tspan>
    </text>
    <text font-size="12.8" style="fill: #000000; fill-opacity: 1; stroke: none;text-anchor:start;font-family:sans-serif;font-style:normal;font-weight:normal" x="452.836" y="548.951">
      <tspan x="452.836" y="548.951"></tspan>
    </text>
    <g>
      <path style="fill: none; stroke-opacity: 1; stroke-width: 2; stroke: #000000" d="M 498.204 542.408 C 618.65,530.87 702.256,544.515 712.799,581.351"/>
      <polygon style="fill: #000000; fill-opacity: 1; stroke-opacity: 1; stroke-width: 2; stroke: #000000" fill-rule="evenodd" points="714.863,588.561 707.304,580.323 712.799,581.351 716.918,577.572 "/>
    </g>
    <g>
      <path style="fill: none; stroke-opacity: 1; stroke-width: 2; stroke: #000000" d="M 730.009 700.688 C 728.625,763.432 686.122,752.453 630.174,753.56"/>
      <polygon style="fill: #000000; fill-opacity: 1; stroke-opacity: 1; stroke-width: 2; stroke: #000000" fill-rule="evenodd" points="622.676,753.709 632.575,748.512 630.174,753.56 632.773,758.51 "/>
    </g>
    <g>
      <path style="fill: none; stroke-opacity: 1; stroke-width: 2; stroke: #000000" d="M 333.784 592.147 C 333.838,527.761 397.212,542.949 426.538,543.928"/>
      <polygon style="fill: #000000; fill-opacity: 1; stroke-opacity: 1; stroke-width: 2; stroke: #000000" fill-rule="evenodd" points="434.033,544.178 423.872,548.842 426.538,543.928 424.206,538.847 "/>
    </g>
    <g>
      <path style="fill: none; stroke-opacity: 1; stroke-width: 2; stroke: #000000" d="M 401.506 755.082 C 326.252,755.663 333.945,721.561 333.891,702.141"/>
      <polygon style="fill: #000000; fill-opacity: 1; stroke-opacity: 1; stroke-width: 2; stroke: #000000" fill-rule="evenodd" points="409.006,755.024 399.045,760.101 401.506,755.082 398.968,750.101 "/>
    </g>
    <text font-size="12.8" style="fill: #000000; fill-opacity: 1; stroke: none;text-anchor:start;font-family:sans-serif;font-style:normal;font-weight:normal" x="583.738" y="540.901">
      <tspan x="583.738" y="540.901"></tspan>
    </text>
    <text font-size="12.8" style="fill: #000000; fill-opacity: 1; stroke: none;text-anchor:start;font-family:sans-serif;font-style:normal;font-weight:normal" x="467.916" y="545.309">
      <tspan x="467.916" y="545.309">A</tspan>
    </text>
    <text font-size="12.8" style="fill: #000000; fill-opacity: 1; stroke: none;text-anchor:start;font-family:sans-serif;font-style:normal;font-weight:normal" x="438.322" y="820.878">
      <tspan x="438.322" y="820.878">A</tspan>
    </text>
    <text font-size="12.8" style="fill: #000000; fill-opacity: 1; stroke: none;text-anchor:start;font-family:sans-serif;font-style:normal;font-weight:normal" x="590.621" y="631.24">
      <tspan x="590.621" y="631.24"></tspan>
    </text>
    <text font-size="12.8" style="fill: #000000; fill-opacity: 1; stroke: none;text-anchor:start;font-family:sans-serif;font-style:normal;font-weight:normal" x="583.172" y="754.352">
      <tspan x="583.172" y="754.352">B1</tspan>
    </text>
    <text font-size="12.8" style="fill: #000000; fill-opacity: 1; stroke: none;text-anchor:start;font-family:sans-serif;font-style:normal;font-weight:normal" x="587.974" y="531.157">
      <tspan x="587.974" y="531.157"></tspan>
    </text>
    <text font-size="12.8" style="fill: #000000; fill-opacity: 1; stroke: none;text-anchor:start;font-family:sans-serif;font-style:normal;font-weight:normal" x="565.098" y="672.653">
      <tspan x="565.098" y="672.653"></tspan>
    </text>
    <text font-size="12.8" style="fill: #000000; fill-opacity: 1; stroke: none;text-anchor:start;font-family:sans-serif;font-style:normal;font-weight:normal" x="565.098" y="775.595">
      <tspan x="565.098" y="775.595"></tspan>
    </text>
    <g>
      <rect style="fill: #ffffff; fill-opacity: 1; stroke: none" x="563.94" y="527.304" width="39.1" height="14.9"/>
      <text font-size="12.8" style="fill: #000000; fill-opacity: 1; stroke: none;text-anchor:start;font-family:sans-serif;font-style:normal;font-weight:normal" x="563.94" y="539.185">
        <tspan x="563.94" y="539.185">:Linda</tspan>
      </text>
    </g>
    <g>
      <rect style="fill: #ffffff; fill-opacity: 1; stroke: none" x="355.544" y="536.818" width="41.85" height="14.9"/>
      <text font-size="12.8" style="fill: #000000; fill-opacity: 1; stroke: none;text-anchor:start;font-family:sans-serif;font-style:normal;font-weight:normal" x="355.544" y="548.699">
        <tspan x="355.544" y="548.699">:Posee</tspan>
      </text>
    </g>
    <g>
      <rect style="fill: #ffffff; fill-opacity: 1; stroke: none" x="339.636" y="740.098" width="41.85" height="14.9"/>
      <text font-size="12.8" style="fill: #000000; fill-opacity: 1; stroke: none;text-anchor:start;font-family:sans-serif;font-style:normal;font-weight:normal" x="339.636" y="751.979">
        <tspan x="339.636" y="751.979">:Posee</tspan>
      </text>
    </g>
    <g>
      <rect style="fill: #ffffff; fill-opacity: 1; stroke: none" x="659.968" y="744.9" width="41.85" height="14.9"/>
      <text font-size="12.8" style="fill: #000000; fill-opacity: 1; stroke: none;text-anchor:start;font-family:sans-serif;font-style:normal;font-weight:normal" x="659.968" y="756.781">
        <tspan x="659.968" y="756.781">:Posee</tspan>
      </text>
    </g>
    <g>
      <rect style="fill: #ffffff; fill-opacity: 1; stroke: none" x="494.94" y="746.142" width="40.8" height="14.9"/>
      <text font-size="12.8" style="fill: #000000; fill-opacity: 1; stroke: none;text-anchor:start;font-family:sans-serif;font-style:normal;font-weight:normal" x="494.94" y="758.023">
        <tspan x="494.94" y="758.023">:Tocan</tspan>
      </text>
    </g>
    <line style="fill: none; stroke-opacity: 1; stroke-width: 2; stroke: #000000" x1="766" y1="453.631" x2="766" y2="848.522"/>
    <text font-size="12.8" style="fill: #000000; fill-opacity: 1; stroke: none;text-anchor:start;font-family:sans-serif;font-style:normal;font-weight:normal" x="591.164" y="538.563">
      <tspan x="591.164" y="538.563"></tspan>
    </text>
    <text font-size="12.8" style="fill: #000000; fill-opacity: 1; stroke: none;text-anchor:start;font-family:sans-serif;font-style:normal;font-weight:normal" x="615.621" y="778.373">
      <tspan x="615.621" y="778.373"></tspan>
    </text>
    <text font-size="12.8" style="fill: #000000; fill-opacity: 1; stroke: none;text-anchor:start;font-family:sans-serif;font-style:normal;font-weight:normal" x="811.164" y="652.563">
      <tspan x="811.164" y="652.563"></tspan>
    </text>
    <text font-size="12.8" style="fill: #000000; fill-opacity: 1; stroke: none;text-anchor:start;font-family:sans-serif;font-style:normal;font-weight:normal" x="793.164" y="538.563">
      <tspan x="793.164" y="538.563"></tspan>
    </text>
    <text font-size="12.8" style="fill: #000000; fill-opacity: 1; stroke: none;text-anchor:start;font-family:sans-serif;font-style:normal;font-weight:normal" x="802.164" y="544.563">
      <tspan x="802.164" y="544.563"></tspan>
    </text>
    <text font-size="12.8" style="fill: #000000; fill-opacity: 1; stroke: none;text-anchor:start;font-family:sans-serif;font-style:normal;font-weight:normal" x="802.164" y="648.563">
      <tspan x="802.164" y="648.563"></tspan>
    </text>
    <text font-size="12.8" style="fill: #000000; fill-opacity: 1; stroke: none;text-anchor:start;font-family:sans-serif;font-style:normal;font-weight:normal" x="806.164" y="763.563">
      <tspan x="806.164" y="763.563"></tspan>
    </text>
    <text font-size="12.8" style="fill: #000000; fill-opacity: 1; stroke: none;text-anchor:start;font-family:sans-serif;font-style:normal;font-weight:normal" x="830.164" y="750.563">
      <tspan x="830.164" y="750.563"></tspan>
    </text>
    <text font-size="12.8" style="fill: #000000; fill-opacity: 1; stroke: none;text-anchor:start;font-family:sans-serif;font-style:normal;font-weight:normal" x="515.851" y="754.559">
      <tspan x="515.851" y="754.559"></tspan>
    </text>
    <text font-size="12.8" style="fill: #000000; fill-opacity: 1; stroke: none;text-anchor:start;font-family:sans-serif;font-style:normal;font-weight:normal" x="813.164" y="764.563">
      <tspan x="813.164" y="764.563"></tspan>
    </text>
    <text font-size="12.8" style="fill: #000000; fill-opacity: 1; stroke: none;text-anchor:start;font-family:sans-serif;font-style:normal;font-weight:normal" x="840.164" y="656.563">
      <tspan x="840.164" y="656.563"></tspan>
    </text>
    <text font-size="12.8" style="fill: #000000; fill-opacity: 1; stroke: none;text-anchor:start;font-family:sans-serif;font-style:normal;font-weight:normal" x="840.164" y="658.563">
      <tspan x="840.164" y="658.563"></tspan>
    </text>
    <text font-size="12.8" style="fill: #000000; fill-opacity: 1; stroke: none;text-anchor:start;font-family:sans-serif;font-style:normal;font-weight:normal" x="333.738" y="647.139">
      <tspan x="333.738" y="647.139"></tspan>
    </text>
    <text font-size="12.8" style="fill: #000000; fill-opacity: 1; stroke: none;text-anchor:start;font-family:sans-serif;font-style:normal;font-weight:normal" x="731.222" y="645.717">
      <tspan x="731.222" y="645.717"></tspan>
    </text>
    <text font-size="12.8" style="fill: #000000; fill-opacity: 1; stroke: none;text-anchor:start;font-family:sans-serif;font-style:normal;font-weight:normal" x="336.164" y="736.563">
      <tspan x="336.164" y="736.563"></tspan>
    </text>
    <text font-size="12.8" style="fill: #000000; fill-opacity: 1; stroke: none;text-anchor:start;font-family:sans-serif;font-style:normal;font-weight:normal" x="723.164" y="735.563">
      <tspan x="723.164" y="735.563"></tspan>
    </text>
    <text font-size="12.8" style="fill: #000000; fill-opacity: 1; stroke: none;text-anchor:start;font-family:sans-serif;font-style:normal;font-weight:normal" x="662.164" y="643.563">
      <tspan x="662.164" y="643.563"></tspan>
    </text>
    <text font-size="12.8" style="fill: #000000; fill-opacity: 1; stroke: none;text-anchor:start;font-family:sans-serif;font-style:normal;font-weight:normal" x="529.164" y="752.563">
      <tspan x="529.164" y="752.563"></tspan>
    </text>
    <text font-size="12.8" style="fill: #000000; fill-opacity: 1; stroke: none;text-anchor:start;font-family:sans-serif;font-style:normal;font-weight:normal" x="463.148" y="641.155">
      <tspan x="463.148" y="641.155"></tspan>
    </text>
    <text font-size="12.8" style="fill: #000000; fill-opacity: 1; stroke: none;text-anchor:start;font-family:sans-serif;font-style:normal;font-weight:normal" x="615.621" y="526.5">
      <tspan x="615.621" y="526.5"></tspan>
    </text>
    <text font-size="12.8" style="fill: #000000; fill-opacity: 1; stroke: none;text-anchor:start;font-family:sans-serif;font-style:normal;font-weight:normal" x="456.164" y="634.563">
      <tspan x="456.164" y="634.563"></tspan>
    </text>
    <text font-size="12.8" style="fill: #000000; fill-opacity: 1; stroke: none;text-anchor:start;font-family:sans-serif;font-style:normal;font-weight:normal" x="795.82" y="629.439">
      <tspan x="795.82" y="629.439"></tspan>
    </text>
    <text font-size="12.7998" style="fill: #000000; fill-opacity: 1; stroke: none;text-anchor:start;font-family:sans-serif;font-style:normal;font-weight:normal" x="338.164" y="568.563">
      <tspan x="338.164" y="568.563"></tspan>
    </text>
    <text font-size="12.7998" style="fill: #000000; fill-opacity: 1; stroke: none;text-anchor:start;font-family:sans-serif;font-style:normal;font-weight:normal" x="824.164" y="537.563">
      <tspan x="824.164" y="537.563"></tspan>
    </text>
    <text font-size="12.7998" style="fill: #000000; fill-opacity: 1; stroke: none;text-anchor:start;font-family:sans-serif;font-style:normal;font-weight:normal" x="837.164" y="768.563">
      <tspan x="837.164" y="768.563"></tspan>
    </text>
    <text font-size="12.7998" style="fill: #000000; fill-opacity: 1; stroke: none;text-anchor:start;font-family:sans-serif;font-style:normal;font-weight:normal" x="853.164" y="854.563">
      <tspan x="853.164" y="854.563"></tspan>
    </text>
    <text font-size="12.7998" style="fill: #000000; fill-opacity: 1; stroke: none;text-anchor:start;font-family:sans-serif;font-style:normal;font-weight:normal" x="824.164" y="846.563">
      <tspan x="824.164" y="846.563"></tspan>
    </text>
    <g>
      <polygon style="fill: #ffffff; fill-opacity: 1; stroke-opacity: 1; stroke-width: 2; stroke: #000000" fill-rule="evenodd" points="498.418,484.067 468.418,499.067 438.418,484.067 468.418,469.067 "/>
      <polygon style="fill: none; stroke-opacity: 1; stroke-width: 0.2; stroke: #000000" points="498.418,484.067 468.418,499.067 438.418,484.067 468.418,469.067 "/>
      <polygon style="fill: #ffffff; fill-opacity: 1; stroke-opacity: 1; stroke-width: 2; stroke: #000000" fill-rule="evenodd" points="438.418,484.067 468.418,499.067 468.418,509.067 438.418,494.067 "/>
      <polygon style="fill: none; stroke-opacity: 1; stroke-width: 0.2; stroke: #000000" points="438.418,484.067 468.418,499.067 468.418,509.067 438.418,494.067 "/>
      <polygon style="fill: #ffffff; fill-opacity: 1; stroke-opacity: 1; stroke-width: 2; stroke: #000000" fill-rule="evenodd" points="468.418,499.067 498.418,484.067 498.418,494.067 468.418,509.067 "/>
      <polygon style="fill: none; stroke-opacity: 1; stroke-width: 0.2; stroke: #000000" points="468.418,499.067 498.418,484.067 498.418,494.067 468.418,509.067 "/>
    </g>
    <g>
      <path style="fill: none; stroke-opacity: 1; stroke-width: 2; stroke: #000000" d="M 333.784 592.138 C 333.838,527.752 398.385,490.396 427.711,491.375"/>
      <polygon style="fill: #000000; fill-opacity: 1; stroke-opacity: 1; stroke-width: 2; stroke: #000000" fill-rule="evenodd" points="435.206,491.625 425.045,496.289 427.711,491.375 425.379,486.294 "/>
    </g>
    <text font-size="12.8" style="fill: #000000; fill-opacity: 1; stroke: none;text-anchor:start;font-family:sans-serif;font-style:normal;font-weight:normal" x="461.132" y="489.758">
      <tspan x="461.132" y="489.758">A1</tspan>
    </text>
    <text font-size="12.7998" style="fill: #008000; fill-opacity: 1; stroke: none;text-anchor:start;font-family:sans-serif;font-style:normal;font-weight:normal" x="474" y="488.631">
      <tspan x="474" y="488.631"></tspan>
    </text>
    <text font-size="12.7998" style="fill: #008000; fill-opacity: 1; stroke: none;text-anchor:start;font-family:sans-serif;font-style:normal;font-weight:normal" x="476" y="487.631">
      <tspan x="476" y="487.631"></tspan>
    </text>
    <g>
      <path style="fill: none; stroke-opacity: 1; stroke-width: 2; stroke: #000000" d="M 499.396 489.859 C 619.842,478.321 727.586,533.709 730.613,582"/>
      <polygon style="fill: #000000; fill-opacity: 1; stroke-opacity: 1; stroke-width: 2; stroke: #000000" fill-rule="evenodd" points="731.082,589.486 725.466,579.818 730.613,582 735.447,579.193 "/>
    </g>
    <g>
      <rect style="fill: #ffffff; fill-opacity: 1; stroke: none" x="565" y="485.831" width="39.1" height="14.9"/>
      <text font-size="12.8" style="fill: #000000; fill-opacity: 1; stroke: none;text-anchor:start;font-family:sans-serif;font-style:normal;font-weight:normal" x="565" y="497.712">
        <tspan x="565" y="497.712">:Linda</tspan>
      </text>
    </g>
    <g>
      <rect style="fill: #ffffff; fill-opacity: 1; stroke: none" x="359" y="500.831" width="41.85" height="14.9"/>
      <text font-size="12.8" style="fill: #000000; fill-opacity: 1; stroke: none;text-anchor:start;font-family:sans-serif;font-style:normal;font-weight:normal" x="359" y="512.712">
        <tspan x="359" y="512.712">:Posee</tspan>
      </text>
    </g>
    <text font-size="12.7998" style="fill: #008000; fill-opacity: 1; stroke: none;text-anchor:start;font-family:sans-serif;font-style:normal;font-weight:normal" x="612" y="108.634">
      <tspan x="612" y="108.634"></tspan>
    </text>
    <g>
      <polygon style="fill: #ffffff; fill-opacity: 1; stroke-opacity: 1; stroke-width: 2; stroke: #000000" fill-rule="evenodd" points="605.867,678.07 575.867,693.07 545.867,678.07 575.867,663.07 "/>
      <polygon style="fill: none; stroke-opacity: 1; stroke-width: 0.2; stroke: #000000" points="605.867,678.07 575.867,693.07 545.867,678.07 575.867,663.07 "/>
      <polygon style="fill: #ffffff; fill-opacity: 1; stroke-opacity: 1; stroke-width: 2; stroke: #000000" fill-rule="evenodd" points="545.867,678.07 575.867,693.07 575.867,703.07 545.867,688.07 "/>
      <polygon style="fill: none; stroke-opacity: 1; stroke-width: 0.2; stroke: #000000" points="545.867,678.07 575.867,693.07 575.867,703.07 545.867,688.07 "/>
      <polygon style="fill: #ffffff; fill-opacity: 1; stroke-opacity: 1; stroke-width: 2; stroke: #000000" fill-rule="evenodd" points="575.867,693.07 605.867,678.07 605.867,688.07 575.867,703.07 "/>
      <polygon style="fill: none; stroke-opacity: 1; stroke-width: 0.2; stroke: #000000" points="575.867,693.07 605.867,678.07 605.867,688.07 575.867,703.07 "/>
    </g>
    <g>
      <path style="fill: none; stroke-opacity: 1; stroke-width: 2; stroke: #000000" d="M 706.222 645.717 C 687,631.634 668.279,625.549 615.314,629.196"/>
      <polygon style="fill: #000000; fill-opacity: 1; stroke-opacity: 1; stroke-width: 2; stroke: #000000" fill-rule="evenodd" points="607.832,629.711 617.465,624.036 615.314,629.196 618.152,634.012 "/>
    </g>
    <g>
      <path style="fill: none; stroke-opacity: 1; stroke-width: 2; stroke: #000000" d="M 705.225 659.58 C 681.003,672.497 677.141,683.724 616.454,685.556"/>
      <polygon style="fill: #000000; fill-opacity: 1; stroke-opacity: 1; stroke-width: 2; stroke: #000000" fill-rule="evenodd" points="608.958,685.783 618.802,680.483 616.454,685.556 619.104,690.479 "/>
    </g>
    <g>
      <rect style="fill: #ffffff; fill-opacity: 1; stroke: none" x="655" y="620.834" width="41.85" height="14.9"/>
      <text font-size="12.8" style="fill: #000000; fill-opacity: 1; stroke: none;text-anchor:start;font-family:sans-serif;font-style:normal;font-weight:normal" x="655" y="632.715">
        <tspan x="655" y="632.715">:Posee</tspan>
      </text>
    </g>
    <g>
      <rect style="fill: #ffffff; fill-opacity: 1; stroke: none" x="656" y="670.034" width="41.85" height="14.9"/>
      <text font-size="12.8" style="fill: #000000; fill-opacity: 1; stroke: none;text-anchor:start;font-family:sans-serif;font-style:normal;font-weight:normal" x="656" y="681.915">
        <tspan x="656" y="681.915">:Posee</tspan>
      </text>
    </g>
    <g>
      <path style="fill: none; stroke-opacity: 1; stroke-width: 2; stroke: #000000" d="M 543.61 631.815 C 469.287,631.499 449.992,634.897 369.412,643.383"/>
      <polygon style="fill: #000000; fill-opacity: 1; stroke-opacity: 1; stroke-width: 2; stroke: #000000" fill-rule="evenodd" points="361.954,644.168 371.375,638.148 369.412,643.383 372.422,648.093 "/>
    </g>
    <g>
      <rect style="fill: #ffffff; fill-opacity: 1; stroke: none" x="455" y="626.834" width="39.1" height="14.9"/>
      <text font-size="12.8" style="fill: #000000; fill-opacity: 1; stroke: none;text-anchor:start;font-family:sans-serif;font-style:normal;font-weight:normal" x="455" y="638.715">
        <tspan x="455" y="638.715">:Linda</tspan>
      </text>
    </g>
    <g>
      <path style="fill: none; stroke-opacity: 1; stroke-width: 2; stroke: #000000" d="M 545.346 687.112 C 467.765,687.986 453.977,686.038 368.979,658.54"/>
      <polygon style="fill: #000000; fill-opacity: 1; stroke-opacity: 1; stroke-width: 2; stroke: #000000" fill-rule="evenodd" points="361.843,656.232 372.896,654.552 368.979,658.54 369.818,664.067 "/>
    </g>
    <g>
      <rect style="fill: #ffffff; fill-opacity: 1; stroke: none" x="455" y="675.834" width="39.1" height="14.9"/>
      <text font-size="12.8" style="fill: #000000; fill-opacity: 1; stroke: none;text-anchor:start;font-family:sans-serif;font-style:normal;font-weight:normal" x="455" y="687.715">
        <tspan x="455" y="687.715">:Linda</tspan>
      </text>
    </g>
    <text font-size="12.8" style="fill: #000000; fill-opacity: 1; stroke: none;text-anchor:start;font-family:sans-serif;font-style:normal;font-weight:normal" x="576.581" y="686.76">
      <tspan x="576.581" y="686.76">B</tspan>
    </text>
    <text font-size="12.7998" style="fill: #008000; fill-opacity: 1; stroke: none;text-anchor:start;font-family:sans-serif;font-style:normal;font-weight:normal" x="731.222" y="645.717">
      <tspan x="731.222" y="645.717"></tspan>
    </text>
    <text font-size="12.7998" style="fill: #008000; fill-opacity: 1; stroke: none;text-anchor:start;font-family:sans-serif;font-style:normal;font-weight:normal" x="126" y="244.715">
      <tspan x="126" y="244.715"></tspan>
    </text>
    <text font-size="12.8" style="fill: #000000; fill-opacity: 1; stroke: none;text-anchor:start;font-family:sans-serif;font-style:normal;font-weight:normal" x="570.621" y="629.24">
      <tspan x="570.621" y="629.24">B1</tspan>
    </text>
    <text font-size="12.7998" style="fill: #008000; fill-opacity: 1; stroke: none;text-anchor:start;font-family:sans-serif;font-style:normal;font-weight:normal" x="543" y="668.634">
      <tspan x="543" y="668.634"></tspan>
    </text>
    <text font-size="12.7998" style="fill: #008000; fill-opacity: 1; stroke: none;text-anchor:start;font-family:sans-serif;font-style:normal;font-weight:normal" x="863" y="503.634">
      <tspan x="863" y="503.634"></tspan>
    </text>
    <g>
      <polygon style="fill: #ffffff; fill-opacity: 1; stroke-opacity: 1; stroke-width: 2; stroke: #000000" fill-rule="evenodd" points="467.608,812.188 437.608,827.188 407.608,812.188 437.608,797.188 "/>
      <polygon style="fill: none; stroke-opacity: 1; stroke-width: 0.2; stroke: #000000" points="467.608,812.188 437.608,827.188 407.608,812.188 437.608,797.188 "/>
      <polygon style="fill: #ffffff; fill-opacity: 1; stroke-opacity: 1; stroke-width: 2; stroke: #000000" fill-rule="evenodd" points="407.608,812.188 437.608,827.188 437.608,837.188 407.608,822.188 "/>
      <polygon style="fill: none; stroke-opacity: 1; stroke-width: 0.2; stroke: #000000" points="407.608,812.188 437.608,827.188 437.608,837.188 407.608,822.188 "/>
      <polygon style="fill: #ffffff; fill-opacity: 1; stroke-opacity: 1; stroke-width: 2; stroke: #000000" fill-rule="evenodd" points="437.608,827.188 467.608,812.188 467.608,822.188 437.608,837.188 "/>
      <polygon style="fill: none; stroke-opacity: 1; stroke-width: 0.2; stroke: #000000" points="437.608,827.188 467.608,812.188 467.608,822.188 437.608,837.188 "/>
    </g>
    <g>
      <line style="fill: none; stroke-opacity: 1; stroke-width: 2; stroke: #ffa500" x1="478.288" y1="821.109" x2="549.766" y2="821.521"/>
      <polygon style="fill: #ffa500; fill-opacity: 1; stroke-opacity: 1; stroke-width: 2; stroke: #ffa500" fill-rule="evenodd" points="470.788,821.066 480.816,816.123 478.288,821.109 480.759,826.123 "/>
      <polygon style="fill: #ffa500; fill-opacity: 1; stroke-opacity: 1; stroke-width: 2; stroke: #ffa500" fill-rule="evenodd" points="557.265,821.565 547.237,826.507 549.766,821.521 547.294,816.507 "/>
    </g>
    <g>
      <path style="fill: none; stroke-opacity: 1; stroke-width: 2; stroke: #000000" d="M 730.01 700.678 C 728.626,763.422 687.157,819.861 631.209,820.968"/>
      <polygon style="fill: #000000; fill-opacity: 1; stroke-opacity: 1; stroke-width: 2; stroke: #000000" fill-rule="evenodd" points="623.711,821.117 633.61,815.92 631.209,820.968 633.808,825.918 "/>
    </g>
    <g>
      <path style="fill: none; stroke-opacity: 1; stroke-width: 2; stroke: #000000" d="M 396.877 821.198 C 321.623,821.779 333.945,721.539 333.891,702.119"/>
      <polygon style="fill: #000000; fill-opacity: 1; stroke-opacity: 1; stroke-width: 2; stroke: #000000" fill-rule="evenodd" points="404.377,821.14 394.416,826.217 396.877,821.198 394.339,816.218 "/>
    </g>
    <g>
      <rect style="fill: #ffffff; fill-opacity: 1; stroke: none" x="329" y="794.215" width="41.85" height="14.9"/>
      <text font-size="12.8" style="fill: #000000; fill-opacity: 1; stroke: none;text-anchor:start;font-family:sans-serif;font-style:normal;font-weight:normal" x="329" y="806.096">
        <tspan x="329" y="806.096">:Posee</tspan>
      </text>
    </g>
    <g>
      <rect style="fill: #ffffff; fill-opacity: 1; stroke: none" x="661.332" y="790.017" width="41.85" height="14.9"/>
      <text font-size="12.8" style="fill: #000000; fill-opacity: 1; stroke: none;text-anchor:start;font-family:sans-serif;font-style:normal;font-weight:normal" x="661.332" y="801.898">
        <tspan x="661.332" y="801.898">:Posee</tspan>
      </text>
    </g>
    <g>
      <rect style="fill: #ffffff; fill-opacity: 1; stroke: none" x="492.304" y="813.259" width="40.8" height="14.9"/>
      <text font-size="12.8" style="fill: #000000; fill-opacity: 1; stroke: none;text-anchor:start;font-family:sans-serif;font-style:normal;font-weight:normal" x="492.304" y="825.14">
        <tspan x="492.304" y="825.14">:Tocan</tspan>
      </text>
    </g>
    <g>
      <polygon style="fill: #ffffff; fill-opacity: 1; stroke-opacity: 1; stroke-width: 2; stroke: #000000" fill-rule="evenodd" points="620.472,813.07 590.472,828.07 560.472,813.07 590.472,798.07 "/>
      <polygon style="fill: none; stroke-opacity: 1; stroke-width: 0.2; stroke: #000000" points="620.472,813.07 590.472,828.07 560.472,813.07 590.472,798.07 "/>
      <polygon style="fill: #ffffff; fill-opacity: 1; stroke-opacity: 1; stroke-width: 2; stroke: #000000" fill-rule="evenodd" points="560.472,813.07 590.472,828.07 590.472,838.07 560.472,823.07 "/>
      <polygon style="fill: none; stroke-opacity: 1; stroke-width: 0.2; stroke: #000000" points="560.472,813.07 590.472,828.07 590.472,838.07 560.472,823.07 "/>
      <polygon style="fill: #ffffff; fill-opacity: 1; stroke-opacity: 1; stroke-width: 2; stroke: #000000" fill-rule="evenodd" points="590.472,828.07 620.472,813.07 620.472,823.07 590.472,838.07 "/>
      <polygon style="fill: none; stroke-opacity: 1; stroke-width: 0.2; stroke: #000000" points="590.472,828.07 620.472,813.07 620.472,823.07 590.472,838.07 "/>
    </g>
    <g>
      <line style="fill: none; stroke-opacity: 1; stroke-width: 2; stroke: #ffa500" x1="473.311" y1="805.549" x2="571.764" y2="762.417"/>
      <polygon style="fill: #ffa500; fill-opacity: 1; stroke-opacity: 1; stroke-width: 2; stroke: #ffa500" fill-rule="evenodd" points="466.442,808.559 473.595,799.966 473.311,805.549 477.608,809.126 "/>
      <polygon style="fill: #ffa500; fill-opacity: 1; stroke-opacity: 1; stroke-width: 2; stroke: #ffa500" fill-rule="evenodd" points="578.634,759.407 571.48,768 571.764,762.417 567.468,758.84 "/>
    </g>
    <g>
      <line style="fill: none; stroke-opacity: 1; stroke-width: 2; stroke: #ffa500" x1="469.49" y1="766.754" x2="555.879" y2="805.802"/>
      <polygon style="fill: #ffa500; fill-opacity: 1; stroke-opacity: 1; stroke-width: 2; stroke: #ffa500" fill-rule="evenodd" points="462.656,763.665 473.828,763.228 469.49,766.754 469.709,772.34 "/>
      <polygon style="fill: #ffa500; fill-opacity: 1; stroke-opacity: 1; stroke-width: 2; stroke: #ffa500" fill-rule="evenodd" points="562.713,808.891 551.541,809.328 555.879,805.802 555.66,800.216 "/>
    </g>
    <g>
      <rect style="fill: #ffffff; fill-opacity: 1; stroke: none" x="501" y="779.834" width="40.8" height="14.9"/>
      <text font-size="12.8" style="fill: #000000; fill-opacity: 1; stroke: none;text-anchor:start;font-family:sans-serif;font-style:normal;font-weight:normal" x="501" y="791.715">
        <tspan x="501" y="791.715">:Tocan</tspan>
      </text>
    </g>
    <text font-size="12.7998" style="fill: #008000; fill-opacity: 1; stroke: none;text-anchor:start;font-family:sans-serif;font-style:normal;font-weight:normal" x="838" y="766.634">
      <tspan x="838" y="766.634"></tspan>
    </text>
    <text font-size="12.7998" style="fill: #008000; fill-opacity: 1; stroke: none;text-anchor:start;font-family:sans-serif;font-style:normal;font-weight:normal" x="804" y="800.634">
      <tspan x="804" y="800.634"></tspan>
    </text>
    <text font-size="12.7998" style="fill: #008000; fill-opacity: 1; stroke: none;text-anchor:start;font-family:sans-serif;font-style:normal;font-weight:normal" x="852" y="633.634">
      <tspan x="852" y="633.634"></tspan>
    </text>
    <text font-size="12.8" style="fill: #000000; fill-opacity: 1; stroke: none;text-anchor:start;font-family:sans-serif;font-style:normal;font-weight:normal" x="435" y="751.715">
      <tspan x="435" y="751.715">A1</tspan>
    </text>
    <text font-size="12.8" style="fill: #000000; fill-opacity: 1; stroke: none;text-anchor:start;font-family:sans-serif;font-style:normal;font-weight:normal" x="438.322" y="820.878">
      <tspan x="438.322" y="820.878">A</tspan>
    </text>
    <text font-size="12.7998" style="fill: #008000; fill-opacity: 1; stroke: none;text-anchor:start;font-family:sans-serif;font-style:normal;font-weight:normal" x="438.322" y="820.878">
      <tspan x="438.322" y="820.878"></tspan>
    </text>
    <text font-size="12.8" style="fill: #000000; fill-opacity: 1; stroke: none;text-anchor:start;font-family:sans-serif;font-style:normal;font-weight:normal" x="591.186" y="821.76">
      <tspan x="591.186" y="821.76">B</tspan>
    </text>
    <text font-size="12.7998" style="fill: #008000; fill-opacity: 1; stroke: none;text-anchor:start;font-family:sans-serif;font-style:normal;font-weight:normal" x="582" y="748.634">
      <tspan x="582" y="748.634"></tspan>
    </text>
    <text font-size="12.7998" style="fill: #008000; fill-opacity: 1; stroke: none;text-anchor:start;font-family:sans-serif;font-style:normal;font-weight:normal" x="603" y="432.522">
      <tspan x="603" y="432.522"></tspan>
    </text>
    <text font-size="12.7998" style="fill: #008000; fill-opacity: 1; stroke: none;text-anchor:start;font-family:sans-serif;font-style:normal;font-weight:normal" x="666" y="440.522">
      <tspan x="666" y="440.522"></tspan>
    </text>
    <text font-size="12.7998" style="fill: #008000; fill-opacity: 1; stroke: none;text-anchor:start;font-family:sans-serif;font-style:normal;font-weight:normal" x="588" y="440.522">
      <tspan x="588" y="440.522"></tspan>
    </text>
    <text font-size="12.7998" style="fill: #008000; fill-opacity: 1; stroke: none;text-anchor:start;font-family:sans-serif;font-style:normal;font-weight:normal" x="649" y="439.522">
      <tspan x="649" y="439.522"></tspan>
    </text>
  </g>
</svg>
